<svg width="22" height="24" viewBox="0 0 22 24" fill="none"
     xmlns="http://www.w3.org/2000/svg">
	<g id="Group">
		<path id="Vector"
		      d="M18.4288 6.28496V18.855H19.5763V6.28496H21.8563V5.14496H20.7163V3.99746H16.1413V1.70996H15.0013V3.99746H6.9988V1.70996H5.8588V3.99746H1.2913V5.14496H0.143799V6.28496H2.4313V18.855H3.5713V6.28496H18.4288Z"
		      fill="#111111"/>
		<path id="Vector_2" d="M18.4288 18.855H17.2888V22.2825H18.4288V18.855Z"
		      fill="#111111"/>
		<path id="Vector_3" d="M17.2887 22.2822H4.71875V23.4297H17.2887V22.2822Z"
		      fill="#111111"/>
		<path id="Vector_4" d="M16.1413 8.57227H15.0013V17.7148H16.1413V8.57227Z"
		      fill="#111111"/>
		<path id="Vector_5" d="M15.0013 17.7148H13.8613V19.9948H15.0013V17.7148Z"
		      fill="#111111"/>
		<path id="Vector_6" d="M11.5738 8.57227H10.4338V19.9948H11.5738V8.57227Z"
		      fill="#111111"/>
		<path id="Vector_7" d="M15.0013 0.569824H6.99878V1.70982H15.0013V0.569824Z"
		      fill="#111111"/>
		<path id="Vector_8" d="M8.14628 17.7148H6.99878V19.9948H8.14628V17.7148Z"
		      fill="#111111"/>
		<path id="Vector_9" d="M6.99876 8.57227H5.85876V17.7148H6.99876V8.57227Z"
		      fill="#111111"/>
		<path id="Vector_10" d="M4.71879 18.855H3.57129V22.2825H4.71879V18.855Z"
		      fill="#111111"/>
	</g>
</svg>
