<svg width="18" height="18" viewBox="0 0 18 18" fill="none" xmlns="http://www.w3.org/2000/svg">
	<g id="&#240;&#159;&#166;&#134; icon &#34;close&#34;">
		<path id="Vector"
		      d="M0 0H2.57143V2.57143H0V0ZM5.14286 5.14286H2.57143V2.57143H5.14286V5.14286ZM7.71429 7.71429H5.14286V5.14286H7.71429V7.71429ZM10.2857 7.71429H7.71429V10.2857H5.14286V12.8571H2.57143V15.4286H0V18H2.57143V15.4286H5.14286V12.8571H7.71429V10.2857H10.2857V12.8571H12.8571V15.4286H15.4286V18H18V15.4286H15.4286V12.8571H12.8571V10.2857H10.2857V7.71429ZM12.8571 5.14286V7.71429H10.2857V5.14286H12.8571ZM15.4286 2.57143V5.14286H12.8571V2.57143H15.4286ZM15.4286 2.57143V0H18V2.57143H15.4286Z"
		      fill="black"/>
	</g>
</svg>
