<svg width="24" height="24" viewBox="0 0 24 24" fill="none" xmlns="http://www.w3.org/2000/svg">
	<g id="ic:points-horizontal-24">
		<path id="Vector" d="M6 10H5V9H3V10H2V11H1V13H2V14H3V15H5V14H6V13H7V11H6V10ZM5 13H3V11H5V13Z" fill="black"/>
		<path id="Vector_2" d="M14 10H13V9H11V10H10V11H9V13H10V14H11V15H13V14H14V13H15V11H14V10ZM13 13H11V11H13V13Z"
		      fill="black"/>
		<path id="Vector_3" d="M22 11V10H21V9H19V10H18V11H17V13H18V14H19V15H21V14H22V13H23V11H22ZM19 13V11H21V13H19Z"
		      fill="black"/>
	</g>
</svg>
