<svg width="24" height="14" viewBox="0 0 24 14" fill="none" xmlns="http://www.w3.org/2000/svg">
	<g id="Group">
		<path id="Vector" d="M23.43 5.85596H22.2825V8.14346H23.43V5.85596Z" fill="#000001"/>
		<path id="Vector_2" d="M22.2825 8.14355H21.1425V9.28356H22.2825V8.14355Z" fill="#000001"/>
		<path id="Vector_3" d="M22.2825 4.71631H21.1425V5.85631H22.2825V4.71631Z" fill="#000001"/>
		<path id="Vector_4" d="M21.1424 9.28369H20.0024V10.4312H21.1424V9.28369Z" fill="#000001"/>
		<path id="Vector_5" d="M21.1424 3.56885H20.0024V4.71635H21.1424V3.56885Z" fill="#000001"/>
		<path id="Vector_6" d="M20.0025 10.4312H17.715V11.5712H20.0025V10.4312Z" fill="#000001"/>
		<path id="Vector_7" d="M20.0025 2.42871H17.715V3.56871H20.0025V2.42871Z" fill="#000001"/>
		<path id="Vector_8" d="M17.715 11.5713H15.4275V12.7113H17.715V11.5713Z" fill="#000001"/>
		<path id="Vector_9" d="M16.5675 4.71631H15.4275V9.28381H16.5675V4.71631Z" fill="#000001"/>
		<path id="Vector_10" d="M17.715 1.28857H15.4275V2.42857H17.715V1.28857Z" fill="#000001"/>
		<path id="Vector_11" d="M15.4275 9.28369H14.2875V10.4312H15.4275V9.28369Z" fill="#000001"/>
		<path id="Vector_12" d="M15.4275 3.56885H14.2875V4.71635H15.4275V3.56885Z" fill="#000001"/>
		<path id="Vector_13" d="M15.4274 12.7109H8.57239V13.8584H15.4274V12.7109Z" fill="#000001"/>
		<path id="Vector_14" d="M14.2874 10.4312H9.7124V11.5712H14.2874V10.4312Z" fill="#000001"/>
		<path id="Vector_15"
		      d="M13.1399 4.71631H10.8599V5.85631H9.7124V8.14381H10.8599V9.28381H13.1399V8.14381H14.2874V5.85631H13.1399V4.71631Z"
		      fill="#000001"/>
		<path id="Vector_16" d="M14.2874 2.42871H9.7124V3.56871H14.2874V2.42871Z" fill="#000001"/>
		<path id="Vector_17" d="M15.4274 0.141113H8.57239V1.28861H15.4274V0.141113Z" fill="#000001"/>
		<path id="Vector_18" d="M9.71239 9.28369H8.57239V10.4312H9.71239V9.28369Z" fill="#000001"/>
		<path id="Vector_19" d="M9.71239 3.56885H8.57239V4.71635H9.71239V3.56885Z" fill="#000001"/>
		<path id="Vector_20" d="M8.57241 11.5713H6.28491V12.7113H8.57241V11.5713Z" fill="#000001"/>
		<path id="Vector_21" d="M8.57243 4.71631H7.42493V9.28381H8.57243V4.71631Z" fill="#000001"/>
		<path id="Vector_22" d="M8.57241 1.28857H6.28491V2.42857H8.57241V1.28857Z" fill="#000001"/>
		<path id="Vector_23" d="M6.28494 10.4312H3.99744V11.5712H6.28494V10.4312Z" fill="#000001"/>
		<path id="Vector_24" d="M6.28494 2.42871H3.99744V3.56871H6.28494V2.42871Z" fill="#000001"/>
		<path id="Vector_25" d="M3.99742 9.28369H2.85742V10.4312H3.99742V9.28369Z" fill="#000001"/>
		<path id="Vector_26" d="M3.99742 3.56885H2.85742V4.71635H3.99742V3.56885Z" fill="#000001"/>
		<path id="Vector_27" d="M2.85741 8.14355H1.71741V9.28356H2.85741V8.14355Z" fill="#000001"/>
		<path id="Vector_28" d="M2.85741 4.71631H1.71741V5.85631H2.85741V4.71631Z" fill="#000001"/>
		<path id="Vector_29" d="M1.71745 5.85596H0.569946V8.14346H1.71745V5.85596Z" fill="#000001"/>
	</g>
</svg>
