<svg width="24" height="24" viewBox="0 0 24 24" fill="none" xmlns="http://www.w3.org/2000/svg">
	<g id="ic:youtube-24">
		<path id="Vector"
		      d="M22.5525 7.35834C22.4273 6.90595 22.1826 6.49337 21.8428 6.16169C21.503 5.83001 21.0799 5.59078 20.6156 5.46782C18.8942 5.0075 12.0076 5.00001 12.0076 5.00001C12.0076 5.00001 5.12209 4.99251 3.3996 5.43249C2.93565 5.56111 2.51343 5.80372 2.17349 6.13703C1.83355 6.47034 1.5873 6.88316 1.45838 7.33586C1.0044 9.01228 1 12.4893 1 12.4893C1 12.4893 0.995605 15.9834 1.44629 17.6427C1.69911 18.5602 2.44108 19.2849 3.38422 19.5322C5.12318 19.9925 11.9911 20 11.9911 20C11.9911 20 18.8778 20.0075 20.5991 19.5686C21.0636 19.4458 21.487 19.2072 21.8277 18.8762C22.1683 18.5451 22.4144 18.1333 22.5415 17.6813C22.9965 16.0059 22.9998 12.53 22.9998 12.53C22.9998 12.53 23.0218 9.03476 22.5525 7.35834ZM9.80477 15.7105L9.81027 9.2874L15.5339 12.5043L9.80477 15.7105Z"
		      fill="black"/>
	</g>
</svg>
