<svg width="24" height="24" viewBox="0 0 24 24" fill="none" xmlns="http://www.w3.org/2000/svg">
	<path d="M1 12C1 5.9247 5.9236 1 12 1C18.0742 1 23 5.9247 23 12C23 18.0753 18.0742 23 12 23C5.9236 23 1 18.0753 1 12Z"
	      fill="#111111"/>
	<path d="M13.408 7.23242H12.3916C10.5282 7.23242 9.5481 8.17622 9.5481 9.56772C9.5481 11.1407 10.2257 11.8777 11.6172 12.8226L12.7667 13.597L9.4634 18.5327H6.995L9.9595 14.1173C8.2545 12.8952 7.2975 11.7083 7.2975 9.70082C7.2975 7.18402 9.052 5.46582 12.3795 5.46582H15.6828V18.5206H13.408V7.23242Z"
	      fill="white"/>
</svg>
