<svg width="24" height="24" viewBox="0 0 24 24" fill="none" xmlns="http://www.w3.org/2000/svg">
	<g id="ic:telegram-24">
		<path id="Vector"
		      d="M21.1244 3.16774C21.1244 3.16774 23.1596 2.34531 22.99 4.34264C22.9334 5.16508 22.4247 8.04357 22.0289 11.1571L20.6722 20.38C20.6722 20.38 20.5591 21.7312 19.5415 21.9662C18.5239 22.2011 16.9976 21.1437 16.7149 20.9087C16.4887 20.7325 12.475 18.089 11.0617 16.7966C10.6659 16.4441 10.2137 15.7392 11.1182 14.9167L17.0541 9.04227C17.7325 8.33731 18.4109 6.69246 15.5842 8.68979L7.66972 14.2706C7.66972 14.2706 6.76521 14.858 5.06927 14.3293L1.39465 13.1544C1.39465 13.1544 0.0378717 12.2732 2.3557 11.392C8.00894 8.631 14.9624 5.81124 21.1244 3.16774Z"
		      fill="black"/>
	</g>
</svg>
