<svg width="24" height="24" viewBox="0 0 24 24" fill="none" xmlns="http://www.w3.org/2000/svg">
	<mask id="mask0_303_392" style="mask-type:luminance" maskUnits="userSpaceOnUse" x="0" y="1" width="23" height="23">
		<path d="M22.9999 1H0.999878V23.22H22.9999V1Z" fill="white"/>
	</mask>
	<g mask="url(#mask0_303_392)">
		<path d="M0.999878 11.6656C0.999878 6.63779 0.999878 4.12389 2.54635 2.56194C4.09284 1 6.58185 1 11.5599 1H12.4399C17.4179 1 19.9069 1 21.4534 2.56194C22.9999 4.12389 22.9999 6.63779 22.9999 11.6656V12.5544C22.9999 17.5822 22.9999 20.0961 21.4534 21.6581C19.9069 23.22 17.4179 23.22 12.4399 23.22H11.5599C6.58185 23.22 4.09284 23.22 2.54635 21.6581C0.999878 20.0961 0.999878 17.5822 0.999878 12.5544V11.6656Z"
		      fill="#111111"/>
		<path d="M12.7058 17.0079C7.69168 17.0079 4.8317 13.536 4.71252 7.75879H7.2242C7.3067 11.9991 9.15833 13.7952 10.625 14.1655V7.75879H12.9901V11.4158C14.4384 11.2584 15.9599 9.59194 16.4732 7.75879H18.8383C18.4441 10.0178 16.7941 11.6843 15.6208 12.3694C16.7941 12.9249 18.6734 14.3785 19.3884 17.0079H16.785C16.2258 15.2488 14.8326 13.8878 12.9901 13.7026V17.0079H12.7058Z"
		      fill="white"/>
	</g>
</svg>
