<svg width="24" height="24" viewBox="0 0 24 24" fill="none" xmlns="http://www.w3.org/2000/svg">
	<path d="M22.8982 10.3086L22.7719 9.82732H12.334V14.1721H18.5771C18.2288 15.498 17.4368 16.671 16.3278 17.5035C15.2189 18.336 13.8571 18.78 12.4603 18.7645C10.6376 18.7498 8.88635 18.0681 7.54997 16.8533C6.89304 16.2188 6.37028 15.4634 6.01157 14.6306C5.65288 13.7977 5.46531 12.9038 5.4596 11.9997C5.4808 10.1841 6.21427 8.4461 7.5079 7.1462C8.8254 5.923 10.5753 5.24782 12.3901 5.26253C13.9445 5.27426 15.441 5.84137 16.599 6.85747L19.6855 3.75009C17.6512 1.9714 15.0181 0.992056 12.2919 1.0002C10.7922 0.991465 9.30549 1.27231 7.91653 1.82672C6.52759 2.38111 5.26366 3.1982 4.19695 4.23132C2.16785 6.29687 1.02387 9.0461 1.00037 11.9132C0.97688 14.7804 2.0757 17.5472 4.07068 19.6444C5.17598 20.7236 6.48967 21.5762 7.93497 22.1522C9.38027 22.7283 10.9281 23.0162 12.4884 22.9993C13.9031 23.0096 15.3053 22.7383 16.6101 22.2018C17.9147 21.6653 19.0945 20.8749 20.0783 19.8782C22.0086 17.798 23.0528 15.0723 22.9964 12.261C23.0116 11.6087 22.9787 10.9563 22.8982 10.3086Z"
	      fill="black"/>
</svg>
